grf
version=1
nRows=9
nColumns=37
inDegrees=no
endheader
time	ground_force_1_vx	ground_force_1_vy	ground_force_1_vz	ground_force_1_px	ground_force_1_py	ground_force_1_pz	ground_moment_1_mx	ground_moment_1_my	ground_moment_1_mz	ground_force_2_vx	ground_force_2_vy	ground_force_2_vz	ground_force_2_px	ground_force_2_py	ground_force_2_pz	ground_moment_2_mx	ground_moment_2_my	ground_moment_2_mz	ground_force_3_vx	ground_force_3_vy	ground_force_3_vz	ground_force_3_px	ground_force_3_py	ground_force_3_pz	ground_moment_3_mx	ground_moment_3_my	ground_moment_3_mz	ground_force_4_vx	ground_force_4_vy	ground_force_4_vz	ground_force_4_px	ground_force_4_py	ground_force_4_pz	ground_moment_4_mx	ground_moment_4_my	ground_moment_4_mz
      0.00000000	      0.00000000	     -0.00000000	      0.00000000	      0.00000000	      0.00000000	      0.00000000	      0.00000000	      0.00000000	      0.00000000	     10.02876949	     21.89645386	   -435.11767578	   -271.50145715	  -1049.66650208	      0.00000000	      0.00000000	      0.00000000	    322.42393032	    -10.17925844	    -22.85293109	   -281.27032471	   -218.43288316	   -796.94268510	      0.00000000	      0.00000000	     -0.00000000	  -2510.65433461	      0.00000000	     -0.00000000	      0.00000000	      0.00000000	      0.00000000	      0.00000000	      0.00000000	      0.00000000	      0.00000000
      0.01000000	      0.00000000	     -0.00000000	      0.00000000	      0.00000000	      0.00000000	      0.00000000	      0.00000000	      0.00000000	      0.00000000	      9.80542183	     21.48815346	   -435.70562744	   -270.96085129	  -1049.12176251	      0.00000000	      0.00000000	      0.00000000	    177.34191850	    -10.09832293	    -22.49983318	   -281.18463135	   -217.87580394	   -796.52929817	      0.00000000	      0.00000000	     -0.00000000	  -2526.72220764	      0.00000000	     -0.00000000	      0.00000000	      0.00000000	      0.00000000	      0.00000000	      0.00000000	      0.00000000	      0.00000000
      0.02000000	      0.00000000	     -0.00000000	      0.00000000	      0.00000000	      0.00000000	      0.00000000	      0.00000000	      0.00000000	      0.00000000	      9.76099873	     21.45024490	   -436.23703003	   -271.40579162	  -1049.15932839	      0.00000000	      0.00000000	      0.00000000	    193.89557205	    -10.49759109	    -22.61752800	   -282.05606079	   -217.81162326	   -794.56692494	      0.00000000	      0.00000000	     -0.00000000	  -2432.79288401	      0.00000000	     -0.00000000	      0.00000000	      0.00000000	      0.00000000	      0.00000000	      0.00000000	      0.00000000	      0.00000000
      0.03000000	      0.00000000	     -0.00000000	      0.00000000	      0.00000000	      0.00000000	      0.00000000	      0.00000000	      0.00000000	      0.00000000	      9.89369297	     21.41304779	   -434.97122192	   -271.47526808	  -1048.68761501	      0.00000000	      0.00000000	      0.00000000	    206.94863042	    -10.37224685	    -23.01525216	   -281.21215820	   -217.86926445	   -796.67429061	      0.00000000	      0.00000000	     -0.00000000	  -2395.46276534	      0.00000000	     -0.00000000	      0.00000000	      0.00000000	      0.00000000	      0.00000000	      0.00000000	      0.00000000	      0.00000000
      0.04000000	      0.00000000	     -0.00000000	      0.00000000	      0.00000000	      0.00000000	      0.00000000	      0.00000000	      0.00000000	      0.00000000	     10.33304596	     21.57875061	   -434.55749512	   -271.44517802	  -1047.83226275	      0.00000000	      0.00000000	      0.00000000	    314.06375087	    -10.32070356	    -22.47685151	   -282.49743652	   -218.52371011	   -795.46207446	      0.00000000	     -0.00000000	     -0.00000000	  -2598.12163666	      0.00000000	     -0.00000000	      0.00000000	      0.00000000	      0.00000000	      0.00000000	      0.00000000	      0.00000000	      0.00000000
      0.05000000	      0.00000000	     -0.00000000	      0.00000000	      0.00000000	      0.00000000	      0.00000000	      0.00000000	      0.00000000	      0.00000000	     10.21270561	     21.39129639	   -435.34814453	   -271.12013890	  -1048.68997289	      0.00000000	      0.00000000	      0.00000000	    208.65762444	    -10.48312673	    -22.82356171	   -281.76538086	   -218.68692253	   -795.39142267	      0.00000000	      0.00000000	     -0.00000000	  -2545.90784955	      0.00000000	     -0.00000000	      0.00000000	      0.00000000	      0.00000000	      0.00000000	      0.00000000	      0.00000000	      0.00000000
      0.06000000	      0.00000000	     -0.00000000	      0.00000000	      0.00000000	      0.00000000	      0.00000000	      0.00000000	      0.00000000	      0.00000000	     10.12767315	     21.63754463	   -433.78875732	   -271.19029265	  -1047.03980417	      0.00000000	      0.00000000	      0.00000000	    311.29990392	    -10.41582971	    -22.42782502	   -282.07723999	   -217.66884351	   -795.40085823	      0.00000000	      0.00000000	     -0.00000000	  -2580.22580080	      0.00000000	     -0.00000000	      0.00000000	      0.00000000	      0.00000000	      0.00000000	      0.00000000	      0.00000000	      0.00000000
      0.07000000	      0.00000000	     -0.00000000	      0.00000000	      0.00000000	      0.00000000	      0.00000000	      0.00000000	      0.00000000	      0.00000000	      9.77644062	     21.96276093	   -435.98980713	   -271.73643115	  -1048.46504599	      0.00000000	      0.00000000	      0.00000000	    317.46229420	    -10.41575438	    -22.51652054	   -280.53457642	   -217.23164276	   -796.31663709	      0.00000000	      0.00000000	     -0.00000000	  -2628.36987094	      0.00000000	     -0.00000000	      0.00000000	      0.00000000	      0.00000000	      0.00000000	      0.00000000	      0.00000000	      0.00000000
      0.08000000	      0.00000000	     -0.00000000	      0.00000000	      0.00000000	      0.00000000	      0.00000000	      0.00000000	      0.00000000	      0.00000000	      9.51372623	     21.95784760	   -436.03210449	   -270.93283800	  -1048.74036156	      0.00000000	      0.00000000	      0.00000000	    187.06577520	    -10.74965484	    -22.57397939	   -281.21084595	   -217.33784878	   -794.94491742	      0.00000000	      0.00000000	      0.00000000	  -2513.17797092	      0.00000000	     -0.00000000	      0.00000000	      0.00000000	      0.00000000	      0.00000000	      0.00000000	      0.00000000	      0.00000000
